# xmcd CD database file
#
# Track frame offsets:
#	150
#	20099
#	40374
#	64390
#	91003
#	104768
#	123739
#	136177
#	168394
#	180899
#
# Disc length: 2555 seconds
#
# Revision: 0
# Processed by: cddbd v1.5.2PL0 Copyright (c) Steve Scherf et al.
# Submitted via: CDex 1.70beta2
#
DISCID=8809f90a
DTITLE=The Old Blues Band - The Old Blues Band
DYEAR=2007
DGENRE=Blues
TTITLE0=Black Cadillac
TTITLE1=I'm Just a Simple Man
TTITLE2=Banca do Blues
TTITLE3=I Don't See You
TTITLE4=Gata Malvada
TTITLE5=A Todo Volume
TTITLE6=Passado é Passado
TTITLE7=Passado Escondido
TTITLE8=Quero Mais Beber do Seu Amor
TTITLE9=Carioca Way of Life
EXTD=YEAR: 2007
EXTT0=
EXTT1=
EXTT2=
EXTT3=
EXTT4=
EXTT5=
EXTT6=
EXTT7=
EXTT8=
EXTT9=
PLAYORDER=
